<svg viewBox="0 0 24.00 24.00" data-name="016_FOOD" id="_016_FOOD"
    xmlns="http://www.w3.org/2000/svg" fill="#fefefe" stroke="#fefefe" stroke-width="0.00024000000000000003">
    <g id="SVGRepo_bgCarrier" stroke-width="0"></g>
    <g id="SVGRepo_tracerCarrier" stroke-linecap="round" stroke-linejoin="round"></g>
    <g id="SVGRepo_iconCarrier">
        <defs>
            <style>.cls-1{fill:#fefefe;}</style>
        </defs>
        <path class="cls-1" d="M16.5,22a1,1,0,0,1-.5-.13l-1.38-.8a1,1,0,0,1,1-1.73l.88.51,3.5-2v-4l-3.5-2-3.5,2V18a1,1,0,0,1-2,0v-4.8a1,1,0,0,1,.5-.87L16,9.74a1,1,0,0,1,1,0l4.5,2.6a1,1,0,0,1,.5.87V18.4a1,1,0,0,1-.5.87L17,21.87A1,1,0,0,1,16.5,22Z"></path>
        <path class="cls-1" d="M7.5,22a1,1,0,0,1-.5-.13l-4.5-2.6A1,1,0,0,1,2,18.4V13.21a1,1,0,0,1,.5-.87L7,9.74a1,1,0,0,1,1,0l4.5,2.6a1,1,0,1,1-1,1.73l-4-2.31-3.5,2v4l3.5,2,4-2.31a1,1,0,0,1,1.37.36,1,1,0,0,1-.37,1.37L8,21.87A1,1,0,0,1,7.5,22Z"></path>
        <path class="cls-1" d="M16.5,11.6a1,1,0,0,1-1-1V6L12,4,8.5,6V10.6a1,1,0,1,1-2,0V5.41A1,1,0,0,1,7,4.54l4.5-2.6a1,1,0,0,1,1,0L17,4.54a1,1,0,0,1,.5.87V10.6A1,1,0,0,1,16.5,11.6Z"></path>
    </g>
</svg>